<svg width="115" height="40" viewBox="0 0 115 40" fill="none" xmlns="http://www.w3.org/2000/svg">
<g clip-path="url(#clip0_70_43)">
<path d="M35 31.6667H38.3333V35H1.66663V31.6667H4.99996V6.66667C4.99996 6.22464 5.17555 5.80072 5.48811 5.48816C5.80068 5.17559 6.2246 5 6.66663 5H23.3333C23.7753 5 24.1992 5.17559 24.5118 5.48816C24.8244 5.80072 25 6.22464 25 6.66667V31.6667H31.6666V18.3333H28.3333V15H33.3333C33.7753 15 34.1992 15.1756 34.5118 15.4882C34.8244 15.8007 35 16.2246 35 16.6667V31.6667ZM8.33329 8.33333V31.6667H21.6666V8.33333H8.33329ZM11.6666 18.3333H18.3333V21.6667H11.6666V18.3333ZM11.6666 11.6667H18.3333V15H11.6666V11.6667Z" fill="#A03816"/>
</g>
<path d="M50.98 27.7C49.8733 27.7 48.8867 27.46 48.02 26.98C47.1667 26.4867 46.4933 25.8133 46 24.96C45.5067 24.1067 45.26 23.14 45.26 22.06V13.44H47.98V22.14C47.98 22.7667 48.1067 23.3067 48.36 23.76C48.6267 24.2133 48.9867 24.5667 49.44 24.82C49.9067 25.06 50.42 25.18 50.98 25.18C51.5533 25.18 52.06 25.06 52.5 24.82C52.94 24.5667 53.2867 24.2133 53.54 23.76C53.8067 23.3067 53.94 22.7733 53.94 22.16V13.44H56.68V22.08C56.68 23.16 56.4333 24.1267 55.94 24.98C55.4467 25.82 54.7733 26.4867 53.92 26.98C53.08 27.46 52.1 27.7 50.98 27.7ZM64.4458 27.7C63.7524 27.7 63.1258 27.56 62.5658 27.28C62.0058 26.9867 61.5591 26.5933 61.2258 26.1C60.8924 25.6067 60.7124 25.04 60.6858 24.4V20.98C60.7124 20.34 60.8924 19.7733 61.2258 19.28C61.5724 18.7733 62.0191 18.3733 62.5658 18.08C63.1258 17.7867 63.7524 17.64 64.4458 17.64C65.3391 17.64 66.1391 17.86 66.8458 18.3C67.5524 18.74 68.1058 19.34 68.5058 20.1C68.9191 20.86 69.1258 21.72 69.1258 22.68C69.1258 23.6267 68.9191 24.48 68.5058 25.24C68.1058 26 67.5524 26.6 66.8458 27.04C66.1391 27.48 65.3391 27.7 64.4458 27.7ZM63.9858 25.28C64.4658 25.28 64.8924 25.1733 65.2658 24.96C65.6391 24.7333 65.9258 24.4267 66.1258 24.04C66.3391 23.64 66.4458 23.18 66.4458 22.66C66.4458 22.1533 66.3391 21.7067 66.1258 21.32C65.9258 20.92 65.6391 20.6133 65.2658 20.4C64.8924 20.1733 64.4658 20.06 63.9858 20.06C63.5191 20.06 63.0991 20.1733 62.7258 20.4C62.3524 20.6133 62.0591 20.92 61.8458 21.32C61.6458 21.7067 61.5458 22.1533 61.5458 22.66C61.5458 23.18 61.6458 23.64 61.8458 24.04C62.0591 24.4267 62.3458 24.7333 62.7058 24.96C63.0791 25.1733 63.5058 25.28 63.9858 25.28ZM59.0858 31.54V17.84H61.7058V20.38L61.2658 22.72L61.6858 25.06V31.54H59.0858ZM72.0292 27.5V13.82H74.6492V27.5H72.0292ZM69.7692 20.14V17.84H76.9092V20.14H69.7692ZM82.6883 27.7C81.7149 27.7 80.8349 27.48 80.0483 27.04C79.2749 26.5867 78.6549 25.98 78.1883 25.22C77.7349 24.4467 77.5083 23.5867 77.5083 22.64C77.5083 21.6933 77.7349 20.8467 78.1883 20.1C78.6416 19.34 79.2616 18.74 80.0483 18.3C80.8349 17.8467 81.7083 17.62 82.6683 17.62C83.6549 17.62 84.5349 17.8467 85.3083 18.3C86.0949 18.74 86.7149 19.34 87.1683 20.1C87.6216 20.8467 87.8483 21.6933 87.8483 22.64C87.8483 23.5867 87.6216 24.4467 87.1683 25.22C86.7149 25.98 86.0949 26.5867 85.3083 27.04C84.5349 27.48 83.6616 27.7 82.6883 27.7ZM82.6683 25.26C83.1616 25.26 83.5949 25.1533 83.9683 24.94C84.3549 24.7133 84.6483 24.4067 84.8483 24.02C85.0616 23.62 85.1683 23.1667 85.1683 22.66C85.1683 22.1533 85.0616 21.7067 84.8483 21.32C84.6349 20.9333 84.3416 20.6333 83.9683 20.42C83.5949 20.1933 83.1616 20.08 82.6683 20.08C82.1883 20.08 81.7616 20.1933 81.3883 20.42C81.0149 20.6333 80.7216 20.9333 80.5083 21.32C80.2949 21.7067 80.1883 22.1533 80.1883 22.66C80.1883 23.1667 80.2949 23.62 80.5083 24.02C80.7216 24.4067 81.0149 24.7133 81.3883 24.94C81.7616 25.1533 82.1883 25.26 82.6683 25.26ZM91.9002 27.5L88.2802 17.84H90.9202L93.2802 24.86L92.4802 24.88L94.9002 17.84H96.8002L99.2202 24.88L98.4202 24.86L100.78 17.84H103.42L99.8202 27.5H97.9202L95.4802 20.82H96.2202L93.7802 27.5H91.9002ZM111.191 27.5V21.96C111.191 21.3867 111.011 20.92 110.651 20.56C110.291 20.2 109.825 20.02 109.251 20.02C108.878 20.02 108.545 20.1 108.251 20.26C107.958 20.42 107.725 20.6467 107.551 20.94C107.391 21.2333 107.311 21.5733 107.311 21.96L106.291 21.44C106.291 20.68 106.451 20.02 106.771 19.46C107.105 18.8867 107.558 18.44 108.131 18.12C108.718 17.8 109.378 17.64 110.111 17.64C110.818 17.64 111.451 17.82 112.011 18.18C112.571 18.5267 113.011 18.9867 113.331 19.56C113.651 20.12 113.811 20.7267 113.811 21.38V27.5H111.191ZM104.691 27.5V17.84H107.311V27.5H104.691Z" fill="#A03816"/>
<defs>
<clipPath id="clip0_70_43">
<rect width="40" height="40" fill="white"/>
</clipPath>
</defs>
</svg>
