<svg width="32" height="32" viewBox="0 0 32 32" fill="none" xmlns="http://www.w3.org/2000/svg">
<g clip-path="url(#clip0_46_562)">
<path d="M16 2.6665C19.6227 2.6665 20.0747 2.67984 21.496 2.7465C22.916 2.81317 23.8827 3.03584 24.7334 3.3665C25.6134 3.70517 26.3547 4.16384 27.096 4.90384C27.774 5.57036 28.2986 6.37662 28.6334 7.2665C28.9627 8.11584 29.1867 9.08384 29.2534 10.5038C29.316 11.9252 29.3334 12.3772 29.3334 15.9998C29.3334 19.6225 29.32 20.0745 29.2534 21.4958C29.1867 22.9158 28.9627 23.8825 28.6334 24.7332C28.2996 25.6235 27.7748 26.43 27.096 27.0958C26.4293 27.7736 25.6231 28.2982 24.7334 28.6332C23.884 28.9625 22.916 29.1865 21.496 29.2532C20.0747 29.3158 19.6227 29.3332 16 29.3332C12.3774 29.3332 11.9254 29.3198 10.504 29.2532C9.08402 29.1865 8.11735 28.9625 7.26669 28.6332C6.37645 28.2991 5.57006 27.7744 4.90402 27.0958C4.2259 26.4294 3.70126 25.6231 3.36669 24.7332C3.03602 23.8838 2.81335 22.9158 2.74669 21.4958C2.68402 20.0745 2.66669 19.6225 2.66669 15.9998C2.66669 12.3772 2.68002 11.9252 2.74669 10.5038C2.81335 9.0825 3.03602 8.11717 3.36669 7.2665C3.70034 6.37608 4.22509 5.5696 4.90402 4.90384C5.57025 4.22548 6.37659 3.70081 7.26669 3.3665C8.11735 3.03584 9.08269 2.81317 10.504 2.7465C11.9254 2.68384 12.3774 2.6665 16 2.6665ZM16 9.33317C14.2319 9.33317 12.5362 10.0355 11.286 11.2858C10.0357 12.536 9.33335 14.2317 9.33335 15.9998C9.33335 17.7679 10.0357 19.4636 11.286 20.7139C12.5362 21.9641 14.2319 22.6665 16 22.6665C17.7681 22.6665 19.4638 21.9641 20.7141 20.7139C21.9643 19.4636 22.6667 17.7679 22.6667 15.9998C22.6667 14.2317 21.9643 12.536 20.7141 11.2858C19.4638 10.0355 17.7681 9.33317 16 9.33317ZM24.6667 8.99984C24.6667 8.55781 24.4911 8.13389 24.1785 7.82133C23.866 7.50877 23.442 7.33317 23 7.33317C22.558 7.33317 22.1341 7.50877 21.8215 7.82133C21.5089 8.13389 21.3334 8.55781 21.3334 8.99984C21.3334 9.44186 21.5089 9.86579 21.8215 10.1783C22.1341 10.4909 22.558 10.6665 23 10.6665C23.442 10.6665 23.866 10.4909 24.1785 10.1783C24.4911 9.86579 24.6667 9.44186 24.6667 8.99984ZM16 11.9998C17.0609 11.9998 18.0783 12.4213 18.8284 13.1714C19.5786 13.9216 20 14.939 20 15.9998C20 17.0607 19.5786 18.0781 18.8284 18.8283C18.0783 19.5784 17.0609 19.9998 16 19.9998C14.9392 19.9998 13.9217 19.5784 13.1716 18.8283C12.4214 18.0781 12 17.0607 12 15.9998C12 14.939 12.4214 13.9216 13.1716 13.1714C13.9217 12.4213 14.9392 11.9998 16 11.9998Z" fill="#646464"/>
</g>
<defs>
<clipPath id="clip0_46_562">
<rect width="32" height="32" fill="white"/>
</clipPath>
</defs>
</svg>
