<svg width="32" height="32" viewBox="0 0 32 32" fill="none" xmlns="http://www.w3.org/2000/svg">
<g clip-path="url(#clip0_46_557)">
<path d="M29.5493 7.54124C28.5314 7.99149 27.452 8.2872 26.3467 8.41857C27.5117 7.72181 28.3836 6.62525 28.8 5.33324C27.7067 5.9839 26.508 6.4399 25.2587 6.68657C24.4195 5.78867 23.3072 5.19319 22.0946 4.99268C20.8821 4.79218 19.6373 4.99789 18.5537 5.57784C17.4701 6.15779 16.6085 7.07948 16.1028 8.19963C15.5971 9.31977 15.4757 10.5756 15.7573 11.7719C13.5402 11.6608 11.3711 11.0846 9.39106 10.0808C7.411 9.07698 5.66418 7.66797 4.26401 5.94524C3.7684 6.7965 3.50795 7.7642 3.50934 8.74924C3.50934 10.6826 4.49334 12.3906 5.98934 13.3906C5.10402 13.3627 4.23819 13.1236 3.46401 12.6932V12.7626C3.46428 14.0502 3.90983 15.2981 4.72514 16.2946C5.54044 17.2912 6.67532 17.9752 7.93734 18.2306C7.1155 18.4533 6.25375 18.4861 5.41734 18.3266C5.77317 19.4349 6.46668 20.4042 7.4008 21.0987C8.33491 21.7933 9.46285 22.1783 10.6267 22.1999C9.46998 23.1083 8.14558 23.7799 6.72918 24.1761C5.31279 24.5724 3.83218 24.6856 2.37201 24.5092C4.92094 26.1485 7.88814 27.0187 10.9187 27.0159C21.176 27.0159 26.7853 18.5186 26.7853 11.1492C26.7853 10.9092 26.7787 10.6666 26.768 10.4292C27.8598 9.64013 28.8021 8.66259 29.5507 7.54257L29.5493 7.54124Z" fill="#646464"/>
</g>
<defs>
<clipPath id="clip0_46_557">
<rect width="32" height="32" fill="white"/>
</clipPath>
</defs>
</svg>
